<svg t="1647923975035" class="icon" viewBox="0 0 1024 1024" version="1.1" xmlns="http://www.w3.org/2000/svg" p-id="4876" width="128" height="128"><path d="M512 1024C229.238154 1024 0 794.761846 0 512S229.238154 0 512 0s512 229.238154 512 512-229.238154 512-512 512z m236.307692-551.384615H551.384615V275.692308a39.384615 39.384615 0 1 0-78.76923 0v196.923077H275.692308a39.384615 39.384615 0 1 0 0 78.76923h196.923077v196.923077a39.384615 39.384615 0 1 0 78.76923 0V551.384615h196.923077a39.384615 39.384615 0 0 0 0-78.76923z" fill="#f70565" p-id="4877"></path></svg>